<?xml version="1.0" encoding="UTF-8" standalone="no"?>
<svg
   width="16px"
   height="16px"
   viewBox="0 0 16 16"
   version="1.1"
   id="svg1"
   sodipodi:docname="dfm_rightview_detail_hover_16px.svg"
   inkscape:version="1.4 (e7c3feb100, 2024-10-09)"
   xmlns:inkscape="http://www.inkscape.org/namespaces/inkscape"
   xmlns:sodipodi="http://sodipodi.sourceforge.net/DTD/sodipodi-0.dtd"
   xmlns="http://www.w3.org/2000/svg"
   xmlns:svg="http://www.w3.org/2000/svg">
  <defs
     id="defs1" />
  <sodipodi:namedview
     id="namedview1"
     pagecolor="#505050"
     bordercolor="#eeeeee"
     borderopacity="1"
     inkscape:showpageshadow="0"
     inkscape:pageopacity="0"
     inkscape:pagecheckerboard="0"
     inkscape:deskcolor="#d1d1d1"
     inkscape:zoom="36.9375"
     inkscape:cx="8.0135364"
     inkscape:cy="8.0135364"
     inkscape:window-width="1600"
     inkscape:window-height="793"
     inkscape:window-x="0"
     inkscape:window-y="24"
     inkscape:window-maximized="1"
     inkscape:current-layer="svg1" />
  <title
     id="title1">View/preview view</title>
  <g
     id="View/preview-view"
     stroke="none"
     stroke-width="1"
     fill="none"
     fill-rule="evenodd"
     style="fill:#55a3d8;fill-opacity:1">
    <path
       d="M 2.5,15 C 1.6715729,15 1,14.328427 1,13.5 V 2.5 C 1,1.6715729 1.6715729,1 2.5,1 h 11 C 14.328427,1 15,1.6715729 15,2.5 v 11 C 15,14.328427 14.328427,15 13.5,15 Z M 10,2 H 2.5 C 2.2238576,2 2,2.2238576 2,2.5 v 11 C 2,13.776142 2.2238576,14 2.5,14 H 10 Z m 3.5,0 H 11 v 12 h 2.5 C 13.776142,14 14,13.776142 14,13.5 V 2.5 C 14,2.2238576 13.776142,2 13.5,2 Z"
       id="形状结合"
       fill="#000000"
       fill-rule="nonzero"
       style="fill:#55a3d8;fill-opacity:1" />
  </g>
</svg>
